<mxfile><diagram id="rjE9iWTUr05J7gzjdWDc" name="Page-1"><mxGraphModel dx="986" dy="568" grid="1" gridSize="10" guides="1" tooltips="1" connect="1" arrows="1" fold="1" page="1" pageScale="1" pageWidth="850" pageHeight="1100" math="0" shadow="0"><root><mxCell id="0"/><mxCell id="1" parent="0"/><mxCell id="2" value="" style="rounded=0;whiteSpace=wrap;html=1;direction=south;" parent="1" vertex="1"><mxGeometry x="208.75" y="150" width="280" height="800" as="geometry"/></mxCell><mxCell id="3" value="Administrator" style="shape=umlActor;verticalLabelPosition=bottom;verticalAlign=top;html=1;outlineConnect=0;" parent="1" vertex="1"><mxGeometry x="540" y="520" width="30" height="60" as="geometry"/></mxCell><mxCell id="4" value="&lt;font style=&quot;font-size: 11px;&quot; face=&quot;Verdana&quot;&gt;&lt;b&gt;Food Ordering System In UTM&lt;/b&gt;&lt;/font&gt;" style="text;html=1;align=center;verticalAlign=middle;resizable=0;points=[];autosize=1;strokeColor=none;fillColor=none;" parent="1" vertex="1"><mxGeometry x="245" y="160" width="210" height="30" as="geometry"/></mxCell><mxCell id="5" value="Customer" style="shape=umlActor;verticalLabelPosition=bottom;verticalAlign=top;html=1;outlineConnect=0;" parent="1" vertex="1"><mxGeometry x="140" y="520" width="30" height="60" as="geometry"/></mxCell><mxCell id="6" value="Register/Login" style="ellipse;whiteSpace=wrap;html=1;" parent="1" vertex="1"><mxGeometry x="288.75" y="190" width="120" height="80" as="geometry"/></mxCell><mxCell id="7" style="edgeStyle=orthogonalEdgeStyle;rounded=0;orthogonalLoop=1;jettySize=auto;html=1;exitX=0.5;exitY=1;exitDx=0;exitDy=0;entryX=0.5;entryY=0;entryDx=0;entryDy=0;" parent="1" source="8" target="10" edge="1"><mxGeometry relative="1" as="geometry"/></mxCell><mxCell id="8" value="Browse menu" style="ellipse;whiteSpace=wrap;html=1;" parent="1" vertex="1"><mxGeometry x="288.75" y="290" width="120" height="80" as="geometry"/></mxCell><mxCell id="9" style="edgeStyle=orthogonalEdgeStyle;rounded=0;orthogonalLoop=1;jettySize=auto;html=1;exitX=0.5;exitY=1;exitDx=0;exitDy=0;entryX=0.5;entryY=0;entryDx=0;entryDy=0;" parent="1" source="10" target="11" edge="1"><mxGeometry relative="1" as="geometry"/></mxCell><mxCell id="10" value="Place order" style="ellipse;whiteSpace=wrap;html=1;" parent="1" vertex="1"><mxGeometry x="290" y="390" width="120" height="80" as="geometry"/></mxCell><mxCell id="11" value="Modify order" style="ellipse;whiteSpace=wrap;html=1;" parent="1" vertex="1"><mxGeometry x="290" y="490" width="120" height="80" as="geometry"/></mxCell><mxCell id="12" value="Cancel order" style="ellipse;whiteSpace=wrap;html=1;" parent="1" vertex="1"><mxGeometry x="288.75" y="580" width="120" height="80" as="geometry"/></mxCell><mxCell id="13" style="edgeStyle=orthogonalEdgeStyle;rounded=0;orthogonalLoop=1;jettySize=auto;html=1;exitX=0.5;exitY=0;exitDx=0;exitDy=0;entryX=0.5;entryY=1;entryDx=0;entryDy=0;" parent="1" source="14" target="12" edge="1"><mxGeometry relative="1" as="geometry"/></mxCell><mxCell id="14" value="View order status" style="ellipse;whiteSpace=wrap;html=1;" parent="1" vertex="1"><mxGeometry x="290" y="680" width="120" height="80" as="geometry"/></mxCell><mxCell id="15" value="Manage menu" style="ellipse;whiteSpace=wrap;html=1;" parent="1" vertex="1"><mxGeometry x="288.75" y="770" width="120" height="80" as="geometry"/></mxCell><mxCell id="16" value="Manage orders" style="ellipse;whiteSpace=wrap;html=1;" parent="1" vertex="1"><mxGeometry x="288.75" y="860" width="120" height="80" as="geometry"/></mxCell><mxCell id="17" value="" style="endArrow=none;html=1;rounded=0;entryX=0;entryY=0.5;entryDx=0;entryDy=0;" parent="1" target="6" edge="1"><mxGeometry width="50" height="50" relative="1" as="geometry"><mxPoint x="170" y="530" as="sourcePoint"/><mxPoint x="230" y="490" as="targetPoint"/></mxGeometry></mxCell><mxCell id="18" value="" style="endArrow=none;html=1;rounded=0;exitX=1;exitY=0.5;exitDx=0;exitDy=0;" parent="1" source="6" edge="1"><mxGeometry width="50" height="50" relative="1" as="geometry"><mxPoint x="490" y="600" as="sourcePoint"/><mxPoint x="540" y="550" as="targetPoint"/></mxGeometry></mxCell><mxCell id="19" value="" style="endArrow=none;html=1;rounded=0;entryX=0;entryY=0.5;entryDx=0;entryDy=0;" parent="1" target="8" edge="1"><mxGeometry width="50" height="50" relative="1" as="geometry"><mxPoint x="180" y="540" as="sourcePoint"/><mxPoint x="220" y="505" as="targetPoint"/></mxGeometry></mxCell><mxCell id="20" value="" style="endArrow=none;html=1;rounded=0;entryX=0;entryY=0.5;entryDx=0;entryDy=0;" parent="1" target="10" edge="1"><mxGeometry width="50" height="50" relative="1" as="geometry"><mxPoint x="180" y="550" as="sourcePoint"/><mxPoint x="230" y="520" as="targetPoint"/></mxGeometry></mxCell><mxCell id="21" value="" style="endArrow=none;html=1;rounded=0;entryX=0;entryY=0.5;entryDx=0;entryDy=0;" parent="1" target="11" edge="1"><mxGeometry width="50" height="50" relative="1" as="geometry"><mxPoint x="190" y="550" as="sourcePoint"/><mxPoint x="230" y="530" as="targetPoint"/></mxGeometry></mxCell><mxCell id="22" value="" style="endArrow=none;html=1;rounded=0;entryX=0;entryY=0.5;entryDx=0;entryDy=0;" parent="1" target="12" edge="1"><mxGeometry width="50" height="50" relative="1" as="geometry"><mxPoint x="180" y="560" as="sourcePoint"/><mxPoint x="240" y="560" as="targetPoint"/></mxGeometry></mxCell><mxCell id="23" value="" style="endArrow=none;html=1;rounded=0;entryX=0;entryY=0.5;entryDx=0;entryDy=0;" parent="1" target="14" edge="1"><mxGeometry width="50" height="50" relative="1" as="geometry"><mxPoint x="190" y="570" as="sourcePoint"/><mxPoint x="200" y="610" as="targetPoint"/></mxGeometry></mxCell><mxCell id="24" value="" style="endArrow=none;html=1;rounded=0;exitX=1;exitY=0.5;exitDx=0;exitDy=0;" parent="1" source="15" edge="1"><mxGeometry width="50" height="50" relative="1" as="geometry"><mxPoint x="460" y="710" as="sourcePoint"/><mxPoint x="530" y="560" as="targetPoint"/></mxGeometry></mxCell><mxCell id="25" value="" style="endArrow=none;html=1;rounded=0;exitX=1;exitY=0.5;exitDx=0;exitDy=0;" parent="1" source="16" edge="1"><mxGeometry width="50" height="50" relative="1" as="geometry"><mxPoint x="470" y="780" as="sourcePoint"/><mxPoint x="530" y="570" as="targetPoint"/></mxGeometry></mxCell><mxCell id="26" style="edgeStyle=orthogonalEdgeStyle;rounded=0;orthogonalLoop=1;jettySize=auto;html=1;exitX=1;exitY=0.5;exitDx=0;exitDy=0;" parent="1" source="2" target="2" edge="1"><mxGeometry relative="1" as="geometry"/></mxCell></root></mxGraphModel></diagram><diagram id="G7M6Eoct2ZeUC1F6ha8t" name="Page-2"><mxGraphModel dx="1242" dy="568" grid="1" gridSize="10" guides="1" tooltips="1" connect="1" arrows="1" fold="1" page="1" pageScale="1" pageWidth="850" pageHeight="1100" math="0" shadow="0"><root><mxCell id="0"/><mxCell id="1" parent="0"/><mxCell id="Mp4N_SJ_1WQtNDcJWtvz-35" value="" style="rounded=0;whiteSpace=wrap;html=1;fontFamily=Helvetica;fontSize=11;fontColor=default;" vertex="1" parent="1"><mxGeometry x="70" y="30" width="680" height="670" as="geometry"/></mxCell><mxCell id="4xnvVN6WcmdCFTDUq4mE-8" value="&lt;b style=&quot;color: rgb(209, 213, 219); font-family: Söhne, ui-sans-serif, system-ui, -apple-system, &amp;quot;Segoe UI&amp;quot;, Roboto, Ubuntu, Cantarell, &amp;quot;Noto Sans&amp;quot;, sans-serif, &amp;quot;Helvetica Neue&amp;quot;, Arial, &amp;quot;Apple Color Emoji&amp;quot;, &amp;quot;Segoe UI Emoji&amp;quot;, &amp;quot;Segoe UI Symbol&amp;quot;, &amp;quot;Noto Color Emoji&amp;quot;; text-align: left; background-color: rgb(68, 70, 84);&quot;&gt;&lt;font style=&quot;font-size: 8px;&quot;&gt;User Management and&lt;br&gt;Authentication Subsystem&lt;/font&gt;&lt;/b&gt;" style="shape=folder;fontStyle=1;tabWidth=120;tabHeight=40;tabPosition=left;html=1;boundedLbl=1;labelInHeader=1;container=1;collapsible=0;fontSize=14;" parent="1" vertex="1"><mxGeometry x="80" y="80" width="280" height="180" as="geometry"/></mxCell><mxCell id="4xnvVN6WcmdCFTDUq4mE-9" value="" style="html=1;strokeColor=none;resizeWidth=1;resizeHeight=1;fillColor=none;part=1;connectable=0;allowArrows=0;deletable=0;fontSize=14;" parent="4xnvVN6WcmdCFTDUq4mE-8" vertex="1"><mxGeometry width="280" height="125.99999999999999" relative="1" as="geometry"><mxPoint y="30" as="offset"/></mxGeometry></mxCell><mxCell id="4xnvVN6WcmdCFTDUq4mE-22" value="UC001: Manage account" style="ellipse;whiteSpace=wrap;html=1;fontSize=9;" parent="4xnvVN6WcmdCFTDUq4mE-8" vertex="1"><mxGeometry x="103.75" y="84" width="72.50000000000001" height="39.696" as="geometry"/></mxCell><mxCell id="4xnvVN6WcmdCFTDUq4mE-10" value="&lt;b style=&quot;color: rgb(209, 213, 219); font-family: Söhne, ui-sans-serif, system-ui, -apple-system, &amp;quot;Segoe UI&amp;quot;, Roboto, Ubuntu, Cantarell, &amp;quot;Noto Sans&amp;quot;, sans-serif, &amp;quot;Helvetica Neue&amp;quot;, Arial, &amp;quot;Apple Color Emoji&amp;quot;, &amp;quot;Segoe UI Emoji&amp;quot;, &amp;quot;Segoe UI Symbol&amp;quot;, &amp;quot;Noto Color Emoji&amp;quot;; text-align: left; background-color: rgb(68, 70, 84);&quot;&gt;&lt;font style=&quot;font-size: 9px;&quot;&gt;Menu and Inventory &lt;br&gt;Management Subsystem&lt;/font&gt;&lt;/b&gt;" style="shape=folder;fontStyle=1;tabWidth=110;tabHeight=30;tabPosition=left;html=1;boundedLbl=1;labelInHeader=1;container=1;collapsible=0;fontSize=8;" parent="1" vertex="1"><mxGeometry x="400" y="80" width="280" height="170" as="geometry"/></mxCell><mxCell id="4xnvVN6WcmdCFTDUq4mE-11" value="" style="html=1;strokeColor=none;resizeWidth=1;resizeHeight=1;fillColor=none;part=1;connectable=0;allowArrows=0;deletable=0;fontSize=8;" parent="4xnvVN6WcmdCFTDUq4mE-10" vertex="1"><mxGeometry width="280" height="118.99999999999999" relative="1" as="geometry"><mxPoint y="30" as="offset"/></mxGeometry></mxCell><mxCell id="4xnvVN6WcmdCFTDUq4mE-23" value="UC004: Manage menu" style="ellipse;whiteSpace=wrap;html=1;fontSize=9;" parent="4xnvVN6WcmdCFTDUq4mE-10" vertex="1"><mxGeometry x="86.89655172413794" y="43.272727272727266" width="93.33333333333334" height="33.99999999999999" as="geometry"/></mxCell><mxCell id="4xnvVN6WcmdCFTDUq4mE-31" value="UC005: Browser menu" style="ellipse;whiteSpace=wrap;html=1;fontSize=9;" parent="4xnvVN6WcmdCFTDUq4mE-10" vertex="1"><mxGeometry x="86.89655172413794" y="119.99727272727273" width="93.33333333333334" height="33.99999999999999" as="geometry"/></mxCell><mxCell id="Mp4N_SJ_1WQtNDcJWtvz-22" value="" style="endArrow=classic;dashed=1;html=1;rounded=1;labelBackgroundColor=default;strokeColor=default;fontFamily=Helvetica;fontSize=11;fontColor=default;shape=connector;entryX=0.5;entryY=1;entryDx=0;entryDy=0;" edge="1" parent="4xnvVN6WcmdCFTDUq4mE-10" source="4xnvVN6WcmdCFTDUq4mE-31" target="4xnvVN6WcmdCFTDUq4mE-23"><mxGeometry relative="1" as="geometry"><mxPoint x="-9.655172413793103" y="100" as="sourcePoint"/><mxPoint x="86.89655172413794" y="100" as="targetPoint"/></mxGeometry></mxCell><mxCell id="Mp4N_SJ_1WQtNDcJWtvz-23" value="&amp;lt;&amp;lt;extend&amp;gt;&amp;gt;" style="edgeLabel;resizable=0;html=1;align=center;verticalAlign=middle;fontFamily=Helvetica;fontSize=11;fontColor=default;" connectable="0" vertex="1" parent="Mp4N_SJ_1WQtNDcJWtvz-22"><mxGeometry relative="1" as="geometry"><mxPoint as="offset"/></mxGeometry></mxCell><mxCell id="4xnvVN6WcmdCFTDUq4mE-18" value="&lt;span style=&quot;color: rgb(209, 213, 219); font-family: Söhne, ui-sans-serif, system-ui, -apple-system, &amp;quot;Segoe UI&amp;quot;, Roboto, Ubuntu, Cantarell, &amp;quot;Noto Sans&amp;quot;, sans-serif, &amp;quot;Helvetica Neue&amp;quot;, Arial, &amp;quot;Apple Color Emoji&amp;quot;, &amp;quot;Segoe UI Emoji&amp;quot;, &amp;quot;Segoe UI Symbol&amp;quot;, &amp;quot;Noto Color Emoji&amp;quot;; text-align: left; background-color: rgb(68, 70, 84);&quot;&gt;&lt;font style=&quot;font-size: 9px;&quot;&gt;Ordering and Payment &lt;br&gt;Management Subsystem&lt;/font&gt;&lt;/span&gt;" style="shape=folder;fontStyle=1;tabWidth=110;tabHeight=30;tabPosition=left;html=1;boundedLbl=1;labelInHeader=1;container=1;collapsible=0;fontSize=10;" parent="1" vertex="1"><mxGeometry x="400" y="330" width="310" height="270" as="geometry"/></mxCell><mxCell id="4xnvVN6WcmdCFTDUq4mE-19" value="" style="html=1;strokeColor=none;resizeWidth=1;resizeHeight=1;fillColor=none;part=1;connectable=0;allowArrows=0;deletable=0;fontSize=10;" parent="4xnvVN6WcmdCFTDUq4mE-18" vertex="1"><mxGeometry width="446.9767441860466" height="381.78947368421046" relative="1" as="geometry"><mxPoint y="30" as="offset"/></mxGeometry></mxCell><mxCell id="4xnvVN6WcmdCFTDUq4mE-28" value="UC008: Handle order" style="ellipse;whiteSpace=wrap;html=1;fontSize=9;" parent="4xnvVN6WcmdCFTDUq4mE-18" vertex="1"><mxGeometry x="116.25" y="50" width="77.5" height="40" as="geometry"/></mxCell><mxCell id="4xnvVN6WcmdCFTDUq4mE-29" value="UC007: Payment process" style="ellipse;whiteSpace=wrap;html=1;fontSize=9;" parent="4xnvVN6WcmdCFTDUq4mE-18" vertex="1"><mxGeometry x="113.75" y="210" width="82.5" height="37.71" as="geometry"/></mxCell><mxCell id="4xnvVN6WcmdCFTDUq4mE-30" value="UC006: Placing order" style="ellipse;whiteSpace=wrap;html=1;fontSize=9;" parent="4xnvVN6WcmdCFTDUq4mE-18" vertex="1"><mxGeometry x="116.25" y="130" width="77.5" height="38.93" as="geometry"/></mxCell><mxCell id="Mp4N_SJ_1WQtNDcJWtvz-26" value="" style="endArrow=classic;dashed=1;html=1;rounded=1;labelBackgroundColor=default;strokeColor=default;fontFamily=Helvetica;fontSize=11;fontColor=default;shape=connector;entryX=0.5;entryY=0;entryDx=0;entryDy=0;exitX=0.5;exitY=1;exitDx=0;exitDy=0;" edge="1" parent="4xnvVN6WcmdCFTDUq4mE-18" source="4xnvVN6WcmdCFTDUq4mE-30" target="4xnvVN6WcmdCFTDUq4mE-29"><mxGeometry relative="1" as="geometry"><mxPoint x="111.74418604651162" y="144.64285714285714" as="sourcePoint"/><mxPoint x="109.88658914728694" y="152.21512987012989" as="targetPoint"/></mxGeometry></mxCell><mxCell id="Mp4N_SJ_1WQtNDcJWtvz-27" value="&amp;lt;&amp;lt;include&amp;gt;&amp;gt;" style="edgeLabel;resizable=0;html=1;align=center;verticalAlign=middle;fontFamily=Helvetica;fontSize=11;fontColor=default;" connectable="0" vertex="1" parent="Mp4N_SJ_1WQtNDcJWtvz-26"><mxGeometry relative="1" as="geometry"><mxPoint as="offset"/></mxGeometry></mxCell><mxCell id="Mp4N_SJ_1WQtNDcJWtvz-31" value="" style="endArrow=classic;dashed=1;html=1;rounded=1;labelBackgroundColor=default;strokeColor=default;fontFamily=Helvetica;fontSize=11;fontColor=default;shape=connector;entryX=0.5;entryY=1;entryDx=0;entryDy=0;exitX=0.5;exitY=0;exitDx=0;exitDy=0;" edge="1" parent="4xnvVN6WcmdCFTDUq4mE-18" source="4xnvVN6WcmdCFTDUq4mE-30" target="4xnvVN6WcmdCFTDUq4mE-28"><mxGeometry relative="1" as="geometry"><mxPoint x="50.46511627906976" y="48.214285714285715" as="sourcePoint"/><mxPoint x="50.46774555403546" y="154.2891541353382" as="targetPoint"/></mxGeometry></mxCell><mxCell id="Mp4N_SJ_1WQtNDcJWtvz-32" value="&amp;lt;&amp;lt;extend&amp;gt;&amp;gt;" style="edgeLabel;resizable=0;html=1;align=center;verticalAlign=middle;fontFamily=Helvetica;fontSize=11;fontColor=default;" connectable="0" vertex="1" parent="Mp4N_SJ_1WQtNDcJWtvz-31"><mxGeometry relative="1" as="geometry"><mxPoint as="offset"/></mxGeometry></mxCell><mxCell id="4xnvVN6WcmdCFTDUq4mE-15" value="&lt;b style=&quot;&quot;&gt;&lt;span style=&quot;color: rgb(209, 213, 219); font-family: Söhne, ui-sans-serif, system-ui, -apple-system, &amp;quot;Segoe UI&amp;quot;, Roboto, Ubuntu, Cantarell, &amp;quot;Noto Sans&amp;quot;, sans-serif, &amp;quot;Helvetica Neue&amp;quot;, Arial, &amp;quot;Apple Color Emoji&amp;quot;, &amp;quot;Segoe UI Emoji&amp;quot;, &amp;quot;Segoe UI Symbol&amp;quot;, &amp;quot;Noto Color Emoji&amp;quot;; text-align: left; background-color: rgb(68, 70, 84);&quot;&gt;&lt;font style=&quot;font-size: 10px;&quot;&gt;Notification Subsystem&lt;/font&gt;&lt;/span&gt;&lt;/b&gt;" style="shape=folder;fontStyle=1;tabWidth=110;tabHeight=30;tabPosition=left;html=1;boundedLbl=1;labelInHeader=1;container=1;collapsible=0;fontSize=9;" parent="1" vertex="1"><mxGeometry x="80" y="320" width="280" height="150" as="geometry"/></mxCell><mxCell id="4xnvVN6WcmdCFTDUq4mE-16" value="" style="html=1;strokeColor=none;resizeWidth=1;resizeHeight=1;fillColor=none;part=1;connectable=0;allowArrows=0;deletable=0;fontSize=9;" parent="4xnvVN6WcmdCFTDUq4mE-15" vertex="1"><mxGeometry width="280" height="105" relative="1" as="geometry"><mxPoint y="30" as="offset"/></mxGeometry></mxCell><mxCell id="4xnvVN6WcmdCFTDUq4mE-24" value="UC002: Sending notification" style="ellipse;whiteSpace=wrap;html=1;fontSize=9;" parent="4xnvVN6WcmdCFTDUq4mE-15" vertex="1"><mxGeometry x="86.66666666666666" y="70" width="106.66666666666666" height="40" as="geometry"/></mxCell><mxCell id="4xnvVN6WcmdCFTDUq4mE-20" value="&lt;b style=&quot;color: rgb(209, 213, 219); font-family: Söhne, ui-sans-serif, system-ui, -apple-system, &amp;quot;Segoe UI&amp;quot;, Roboto, Ubuntu, Cantarell, &amp;quot;Noto Sans&amp;quot;, sans-serif, &amp;quot;Helvetica Neue&amp;quot;, Arial, &amp;quot;Apple Color Emoji&amp;quot;, &amp;quot;Segoe UI Emoji&amp;quot;, &amp;quot;Segoe UI Symbol&amp;quot;, &amp;quot;Noto Color Emoji&amp;quot;; text-align: left;&quot;&gt;&lt;font style=&quot;font-size: 9px;&quot;&gt;Feedback and &lt;br&gt;Rating Subsystem&lt;/font&gt;&lt;/b&gt;" style="shape=folder;fontStyle=1;tabWidth=110;tabHeight=30;tabPosition=left;html=1;boundedLbl=1;labelInHeader=1;container=1;collapsible=0;fontSize=9;" parent="1" vertex="1"><mxGeometry x="80" y="520" width="280" height="155" as="geometry"/></mxCell><mxCell id="4xnvVN6WcmdCFTDUq4mE-21" value="" style="html=1;strokeColor=none;resizeWidth=1;resizeHeight=1;fillColor=none;part=1;connectable=0;allowArrows=0;deletable=0;fontSize=9;" parent="4xnvVN6WcmdCFTDUq4mE-20" vertex="1"><mxGeometry width="280" height="108.50000000000001" relative="1" as="geometry"><mxPoint y="30" as="offset"/></mxGeometry></mxCell><mxCell id="4xnvVN6WcmdCFTDUq4mE-26" value="UC003: Provide feedback and rating" style="ellipse;whiteSpace=wrap;html=1;fontSize=9;" parent="4xnvVN6WcmdCFTDUq4mE-20" vertex="1"><mxGeometry x="86.05739130434783" y="62.00000000000001" width="107.88521739130437" height="54.50833333333334" as="geometry"/></mxCell><mxCell id="Mp4N_SJ_1WQtNDcJWtvz-1" value="Administrator" style="shape=umlActor;verticalLabelPosition=bottom;verticalAlign=top;html=1;outlineConnect=0;" vertex="1" parent="1"><mxGeometry x="790" y="260" width="30" height="60" as="geometry"/></mxCell><mxCell id="Mp4N_SJ_1WQtNDcJWtvz-2" value="Customer" style="shape=umlActor;verticalLabelPosition=bottom;verticalAlign=top;html=1;outlineConnect=0;" vertex="1" parent="1"><mxGeometry x="20" y="299" width="30" height="60" as="geometry"/></mxCell><mxCell id="Mp4N_SJ_1WQtNDcJWtvz-7" value="" style="endArrow=none;html=1;rounded=1;labelBackgroundColor=default;strokeColor=default;fontFamily=Helvetica;fontSize=11;fontColor=default;shape=connector;exitX=0.5;exitY=0.5;exitDx=0;exitDy=0;exitPerimeter=0;entryX=0;entryY=0.5;entryDx=0;entryDy=0;" edge="1" parent="1" source="Mp4N_SJ_1WQtNDcJWtvz-2" target="4xnvVN6WcmdCFTDUq4mE-22"><mxGeometry width="50" height="50" relative="1" as="geometry"><mxPoint x="40" y="330" as="sourcePoint"/><mxPoint x="80" y="280" as="targetPoint"/></mxGeometry></mxCell><mxCell id="Mp4N_SJ_1WQtNDcJWtvz-8" value="" style="endArrow=none;html=1;rounded=1;labelBackgroundColor=default;strokeColor=default;fontFamily=Helvetica;fontSize=11;fontColor=default;shape=connector;exitX=1;exitY=0.5;exitDx=0;exitDy=0;entryX=0.5;entryY=0.5;entryDx=0;entryDy=0;entryPerimeter=0;" edge="1" parent="1" source="4xnvVN6WcmdCFTDUq4mE-22" target="Mp4N_SJ_1WQtNDcJWtvz-1"><mxGeometry width="50" height="50" relative="1" as="geometry"><mxPoint x="710" y="340" as="sourcePoint"/><mxPoint x="760" y="290" as="targetPoint"/><Array as="points"><mxPoint x="610" y="280"/></Array></mxGeometry></mxCell><mxCell id="Mp4N_SJ_1WQtNDcJWtvz-9" value="" style="endArrow=none;html=1;rounded=1;labelBackgroundColor=default;strokeColor=default;fontFamily=Helvetica;fontSize=11;fontColor=default;shape=connector;exitX=1;exitY=0.5;exitDx=0;exitDy=0;entryX=0.5;entryY=0.5;entryDx=0;entryDy=0;entryPerimeter=0;" edge="1" parent="1" source="4xnvVN6WcmdCFTDUq4mE-23" target="Mp4N_SJ_1WQtNDcJWtvz-1"><mxGeometry width="50" height="50" relative="1" as="geometry"><mxPoint x="780" y="320" as="sourcePoint"/><mxPoint x="900" y="330" as="targetPoint"/></mxGeometry></mxCell><mxCell id="Mp4N_SJ_1WQtNDcJWtvz-10" value="" style="endArrow=none;html=1;rounded=1;labelBackgroundColor=default;strokeColor=default;fontFamily=Helvetica;fontSize=11;fontColor=default;shape=connector;exitX=1;exitY=0.5;exitDx=0;exitDy=0;entryX=0.5;entryY=0.5;entryDx=0;entryDy=0;entryPerimeter=0;" edge="1" parent="1" source="4xnvVN6WcmdCFTDUq4mE-24" target="Mp4N_SJ_1WQtNDcJWtvz-1"><mxGeometry width="50" height="50" relative="1" as="geometry"><mxPoint x="640" y="360" as="sourcePoint"/><mxPoint x="710" y="300" as="targetPoint"/><Array as="points"><mxPoint x="330" y="350"/><mxPoint x="370" y="310"/><mxPoint x="690" y="310"/></Array></mxGeometry></mxCell><mxCell id="Mp4N_SJ_1WQtNDcJWtvz-12" value="" style="endArrow=none;html=1;rounded=1;labelBackgroundColor=default;strokeColor=default;fontFamily=Helvetica;fontSize=11;fontColor=default;shape=connector;exitX=1;exitY=0.5;exitDx=0;exitDy=0;entryX=0.5;entryY=0.5;entryDx=0;entryDy=0;entryPerimeter=0;" edge="1" parent="1" source="4xnvVN6WcmdCFTDUq4mE-24" target="Mp4N_SJ_1WQtNDcJWtvz-5"><mxGeometry width="50" height="50" relative="1" as="geometry"><mxPoint x="730" y="620" as="sourcePoint"/><mxPoint x="780" y="570" as="targetPoint"/><Array as="points"><mxPoint x="380" y="410"/><mxPoint x="380" y="590"/><mxPoint x="380" y="680"/><mxPoint x="690" y="680"/></Array></mxGeometry></mxCell><mxCell id="Mp4N_SJ_1WQtNDcJWtvz-13" value="" style="endArrow=none;html=1;rounded=1;labelBackgroundColor=default;strokeColor=default;fontFamily=Helvetica;fontSize=11;fontColor=default;shape=connector;entryX=0;entryY=0.5;entryDx=0;entryDy=0;exitX=0.5;exitY=0.5;exitDx=0;exitDy=0;exitPerimeter=0;" edge="1" parent="1" source="Mp4N_SJ_1WQtNDcJWtvz-2" target="4xnvVN6WcmdCFTDUq4mE-31"><mxGeometry width="50" height="50" relative="1" as="geometry"><mxPoint x="50" y="350" as="sourcePoint"/><mxPoint x="100" y="300" as="targetPoint"/><Array as="points"><mxPoint x="150" y="290"/></Array></mxGeometry></mxCell><mxCell id="Mp4N_SJ_1WQtNDcJWtvz-14" value="" style="endArrow=none;html=1;rounded=1;labelBackgroundColor=default;strokeColor=default;fontFamily=Helvetica;fontSize=11;fontColor=default;shape=connector;entryX=0;entryY=0.5;entryDx=0;entryDy=0;exitX=0.5;exitY=0.5;exitDx=0;exitDy=0;exitPerimeter=0;" edge="1" parent="1" source="Mp4N_SJ_1WQtNDcJWtvz-2" target="4xnvVN6WcmdCFTDUq4mE-24"><mxGeometry width="50" height="50" relative="1" as="geometry"><mxPoint x="40" y="480" as="sourcePoint"/><mxPoint x="90" y="430" as="targetPoint"/></mxGeometry></mxCell><mxCell id="Mp4N_SJ_1WQtNDcJWtvz-15" value="" style="endArrow=none;html=1;rounded=1;labelBackgroundColor=default;strokeColor=default;fontFamily=Helvetica;fontSize=11;fontColor=default;shape=connector;exitX=0.5;exitY=0.5;exitDx=0;exitDy=0;exitPerimeter=0;entryX=0;entryY=0.5;entryDx=0;entryDy=0;" edge="1" parent="1" source="Mp4N_SJ_1WQtNDcJWtvz-2" target="4xnvVN6WcmdCFTDUq4mE-26"><mxGeometry width="50" height="50" relative="1" as="geometry"><mxPoint x="110" y="500" as="sourcePoint"/><mxPoint x="160" y="450" as="targetPoint"/><Array as="points"><mxPoint x="60" y="610"/></Array></mxGeometry></mxCell><mxCell id="Mp4N_SJ_1WQtNDcJWtvz-16" value="" style="endArrow=none;html=1;rounded=1;labelBackgroundColor=default;strokeColor=default;fontFamily=Helvetica;fontSize=11;fontColor=default;shape=connector;entryX=0.5;entryY=0.5;entryDx=0;entryDy=0;entryPerimeter=0;exitX=1;exitY=0.5;exitDx=0;exitDy=0;" edge="1" parent="1" source="4xnvVN6WcmdCFTDUq4mE-26" target="Mp4N_SJ_1WQtNDcJWtvz-1"><mxGeometry width="50" height="50" relative="1" as="geometry"><mxPoint x="820" y="400" as="sourcePoint"/><mxPoint x="870" y="350" as="targetPoint"/><Array as="points"><mxPoint x="670" y="609"/></Array></mxGeometry></mxCell><mxCell id="Mp4N_SJ_1WQtNDcJWtvz-25" value="" style="endArrow=none;html=1;rounded=1;labelBackgroundColor=default;strokeColor=default;fontFamily=Helvetica;fontSize=11;fontColor=default;shape=connector;entryX=0;entryY=0.5;entryDx=0;entryDy=0;" edge="1" parent="1" target="4xnvVN6WcmdCFTDUq4mE-30"><mxGeometry width="50" height="50" relative="1" as="geometry"><mxPoint x="40" y="330" as="sourcePoint"/><mxPoint x="140" y="450" as="targetPoint"/><Array as="points"><mxPoint x="60" y="485"/></Array></mxGeometry></mxCell><mxCell id="Mp4N_SJ_1WQtNDcJWtvz-5" value="Operator Staff" style="shape=umlActor;verticalLabelPosition=bottom;verticalAlign=top;html=1;outlineConnect=0;" vertex="1" parent="1"><mxGeometry x="790" y="470" width="30" height="60" as="geometry"/></mxCell><mxCell id="Mp4N_SJ_1WQtNDcJWtvz-11" value="" style="endArrow=none;html=1;rounded=1;labelBackgroundColor=default;strokeColor=default;fontFamily=Helvetica;fontSize=11;fontColor=default;shape=connector;exitX=1;exitY=0.5;exitDx=0;exitDy=0;entryX=0.5;entryY=0.5;entryDx=0;entryDy=0;entryPerimeter=0;" edge="1" parent="1" source="4xnvVN6WcmdCFTDUq4mE-28" target="Mp4N_SJ_1WQtNDcJWtvz-5"><mxGeometry width="50" height="50" relative="1" as="geometry"><mxPoint x="759.999999999996" y="390" as="sourcePoint"/><mxPoint x="986.37" y="586.26" as="targetPoint"/></mxGeometry></mxCell><mxCell id="Mp4N_SJ_1WQtNDcJWtvz-36" value="&lt;b&gt;Food Ordering System at Arked Angkasa, UTM&lt;/b&gt;" style="text;html=1;strokeColor=none;fillColor=none;align=center;verticalAlign=middle;whiteSpace=wrap;rounded=0;fontFamily=Helvetica;fontSize=11;fontColor=default;" vertex="1" parent="1"><mxGeometry x="305" y="40" width="210" height="30" as="geometry"/></mxCell></root></mxGraphModel></diagram></mxfile>